<mxfile host="app.diagrams.net" agent="Mozilla/5.0 (Windows NT 10.0; Win64; x64; rv:130.0) Gecko/20100101 Firefox/130.0" version="24.7.14">
  <diagram name="Page-1" id="PPufjAX8f_V16HvhKBOY">
    <mxGraphModel dx="1296" dy="696" grid="0" gridSize="10" guides="1" tooltips="1" connect="1" arrows="1" fold="1" page="1" pageScale="1" pageWidth="850" pageHeight="1100" math="0" shadow="0">
      <root>
        <mxCell id="0" />
        <mxCell id="1" parent="0" />
        <mxCell id="2yWPxu5EqL3qzud-W6bz-34" value="" style="edgeStyle=orthogonalEdgeStyle;rounded=1;orthogonalLoop=1;jettySize=auto;html=1;curved=0;endArrow=none;endFill=0;strokeWidth=3;fillColor=#f8cecc;strokeColor=#b85450;" edge="1" parent="1" source="2yWPxu5EqL3qzud-W6bz-25" target="2yWPxu5EqL3qzud-W6bz-4">
          <mxGeometry relative="1" as="geometry">
            <mxPoint x="400" y="565" as="targetPoint" />
          </mxGeometry>
        </mxCell>
        <mxCell id="2yWPxu5EqL3qzud-W6bz-35" value="+5v" style="edgeLabel;html=1;align=center;verticalAlign=middle;resizable=0;points=[];" vertex="1" connectable="0" parent="2yWPxu5EqL3qzud-W6bz-34">
          <mxGeometry x="-0.6744" relative="1" as="geometry">
            <mxPoint x="-13" y="-10" as="offset" />
          </mxGeometry>
        </mxCell>
        <mxCell id="2yWPxu5EqL3qzud-W6bz-3" value="" style="edgeStyle=orthogonalEdgeStyle;rounded=0;orthogonalLoop=1;jettySize=auto;html=1;shadow=0;flowAnimation=0;strokeWidth=3;shape=link;" edge="1" parent="1" source="2yWPxu5EqL3qzud-W6bz-1" target="2yWPxu5EqL3qzud-W6bz-2">
          <mxGeometry relative="1" as="geometry">
            <Array as="points">
              <mxPoint x="260" y="190" />
              <mxPoint x="260" y="190" />
            </Array>
          </mxGeometry>
        </mxCell>
        <mxCell id="2yWPxu5EqL3qzud-W6bz-32" value="TX/RX" style="edgeLabel;html=1;align=center;verticalAlign=middle;resizable=0;points=[];" vertex="1" connectable="0" parent="2yWPxu5EqL3qzud-W6bz-3">
          <mxGeometry x="0.0357" y="-1" relative="1" as="geometry">
            <mxPoint x="1" as="offset" />
          </mxGeometry>
        </mxCell>
        <mxCell id="2yWPxu5EqL3qzud-W6bz-1" value="PCIe Slot" style="rounded=1;whiteSpace=wrap;html=1;fillColor=#fff2cc;strokeColor=#d6b656;" vertex="1" parent="1">
          <mxGeometry x="80" y="130" width="240" height="30" as="geometry" />
        </mxCell>
        <mxCell id="2yWPxu5EqL3qzud-W6bz-5" value="" style="edgeStyle=orthogonalEdgeStyle;rounded=0;orthogonalLoop=1;jettySize=auto;html=1;shape=link;" edge="1" parent="1" target="2yWPxu5EqL3qzud-W6bz-4">
          <mxGeometry relative="1" as="geometry">
            <mxPoint x="320" y="230.02857142857135" as="sourcePoint" />
            <Array as="points">
              <mxPoint x="380" y="230" />
              <mxPoint x="380" y="230" />
            </Array>
          </mxGeometry>
        </mxCell>
        <mxCell id="2yWPxu5EqL3qzud-W6bz-37" value="USB 0" style="edgeLabel;html=1;align=center;verticalAlign=middle;resizable=0;points=[];" vertex="1" connectable="0" parent="2yWPxu5EqL3qzud-W6bz-5">
          <mxGeometry x="-0.08" y="3" relative="1" as="geometry">
            <mxPoint y="-7" as="offset" />
          </mxGeometry>
        </mxCell>
        <mxCell id="2yWPxu5EqL3qzud-W6bz-79" value="" style="edgeStyle=orthogonalEdgeStyle;rounded=0;orthogonalLoop=1;jettySize=auto;html=1;startArrow=classicThin;startFill=1;endArrow=classicThin;endFill=1;" edge="1" parent="1" source="2yWPxu5EqL3qzud-W6bz-2" target="2yWPxu5EqL3qzud-W6bz-78">
          <mxGeometry relative="1" as="geometry">
            <Array as="points" />
          </mxGeometry>
        </mxCell>
        <mxCell id="2yWPxu5EqL3qzud-W6bz-80" value="i2C" style="edgeLabel;html=1;align=center;verticalAlign=middle;resizable=0;points=[];fontFamily=Helvetica;fontSize=11;fontColor=default;labelBackgroundColor=default;" vertex="1" connectable="0" parent="2yWPxu5EqL3qzud-W6bz-79">
          <mxGeometry x="-0.5684" y="1" relative="1" as="geometry">
            <mxPoint x="11" y="-3" as="offset" />
          </mxGeometry>
        </mxCell>
        <mxCell id="2yWPxu5EqL3qzud-W6bz-2" value="&lt;div&gt;&lt;b&gt;MCS9990&lt;/b&gt;&lt;/div&gt;&lt;div&gt;PCIe x4 USB&lt;/div&gt;&lt;div&gt;Host&lt;br&gt;&lt;/div&gt;" style="rounded=1;whiteSpace=wrap;html=1;fillColor=#dae8fc;strokeColor=#6c8ebf;" vertex="1" parent="1">
          <mxGeometry x="200" y="200" width="120" height="290" as="geometry" />
        </mxCell>
        <mxCell id="2yWPxu5EqL3qzud-W6bz-39" value="" style="edgeStyle=orthogonalEdgeStyle;rounded=0;orthogonalLoop=1;jettySize=auto;html=1;shape=link;" edge="1" parent="1" source="2yWPxu5EqL3qzud-W6bz-4" target="2yWPxu5EqL3qzud-W6bz-38">
          <mxGeometry relative="1" as="geometry">
            <Array as="points">
              <mxPoint x="500" y="220" />
              <mxPoint x="500" y="220" />
            </Array>
          </mxGeometry>
        </mxCell>
        <mxCell id="2yWPxu5EqL3qzud-W6bz-41" value="IO" style="edgeLabel;html=1;align=center;verticalAlign=middle;resizable=0;points=[];" vertex="1" connectable="0" parent="2yWPxu5EqL3qzud-W6bz-39">
          <mxGeometry x="-0.2533" y="-1" relative="1" as="geometry">
            <mxPoint x="1" y="-11" as="offset" />
          </mxGeometry>
        </mxCell>
        <mxCell id="2yWPxu5EqL3qzud-W6bz-40" style="edgeStyle=orthogonalEdgeStyle;rounded=0;orthogonalLoop=1;jettySize=auto;html=1;exitX=1;exitY=0.75;exitDx=0;exitDy=0;entryX=0;entryY=0.75;entryDx=0;entryDy=0;strokeWidth=2;startArrow=none;startFill=0;" edge="1" parent="1" source="2yWPxu5EqL3qzud-W6bz-4" target="2yWPxu5EqL3qzud-W6bz-38">
          <mxGeometry relative="1" as="geometry">
            <Array as="points">
              <mxPoint x="530" y="253" />
              <mxPoint x="530" y="253" />
            </Array>
          </mxGeometry>
        </mxCell>
        <mxCell id="2yWPxu5EqL3qzud-W6bz-42" value="+3.3v" style="edgeLabel;html=1;align=center;verticalAlign=middle;resizable=0;points=[];" vertex="1" connectable="0" parent="2yWPxu5EqL3qzud-W6bz-40">
          <mxGeometry x="-0.32" y="1" relative="1" as="geometry">
            <mxPoint x="6" y="-11" as="offset" />
          </mxGeometry>
        </mxCell>
        <mxCell id="2yWPxu5EqL3qzud-W6bz-4" value="&lt;div&gt;&lt;b&gt;AU6438BS&lt;/b&gt;&lt;/div&gt;&lt;div&gt;USB to eMMC&lt;br&gt;&lt;/div&gt;&lt;div style=&quot;font-size: 10px;&quot;&gt;&lt;i&gt;&lt;font style=&quot;font-size: 10px;&quot;&gt;24mA&lt;/font&gt;&lt;/i&gt;&lt;br&gt;&lt;/div&gt;" style="whiteSpace=wrap;html=1;rounded=1;fillColor=#d5e8d4;strokeColor=#82b366;" vertex="1" parent="1">
          <mxGeometry x="370" y="200" width="120" height="70" as="geometry" />
        </mxCell>
        <mxCell id="2yWPxu5EqL3qzud-W6bz-25" value="&lt;div&gt;&lt;b&gt;AP1513&lt;/b&gt;&lt;/div&gt;&lt;div&gt;PWM Step Down&lt;br&gt;&lt;/div&gt;&lt;div&gt;2A&lt;br&gt;&lt;/div&gt;" style="rounded=1;whiteSpace=wrap;html=1;fillColor=#f8cecc;strokeColor=#b85450;" vertex="1" parent="1">
          <mxGeometry x="199.5" y="590" width="120" height="90" as="geometry" />
        </mxCell>
        <mxCell id="2yWPxu5EqL3qzud-W6bz-27" style="edgeStyle=orthogonalEdgeStyle;rounded=1;orthogonalLoop=1;jettySize=auto;html=1;curved=0;strokeWidth=2;" edge="1" parent="1" source="2yWPxu5EqL3qzud-W6bz-1" target="2yWPxu5EqL3qzud-W6bz-2">
          <mxGeometry relative="1" as="geometry">
            <mxPoint x="200" y="310" as="targetPoint" />
            <Array as="points">
              <mxPoint x="130" y="350" />
            </Array>
          </mxGeometry>
        </mxCell>
        <mxCell id="2yWPxu5EqL3qzud-W6bz-28" value="+3.3v" style="edgeLabel;html=1;align=center;verticalAlign=middle;resizable=0;points=[];" vertex="1" connectable="0" parent="2yWPxu5EqL3qzud-W6bz-27">
          <mxGeometry x="-0.2427" y="1" relative="1" as="geometry">
            <mxPoint x="29" y="82" as="offset" />
          </mxGeometry>
        </mxCell>
        <mxCell id="2yWPxu5EqL3qzud-W6bz-29" style="edgeStyle=orthogonalEdgeStyle;rounded=1;orthogonalLoop=1;jettySize=auto;html=1;curved=0;strokeColor=default;strokeWidth=4;" edge="1" parent="1" source="2yWPxu5EqL3qzud-W6bz-1" target="2yWPxu5EqL3qzud-W6bz-25">
          <mxGeometry relative="1" as="geometry">
            <Array as="points">
              <mxPoint x="110" y="635" />
            </Array>
          </mxGeometry>
        </mxCell>
        <mxCell id="2yWPxu5EqL3qzud-W6bz-31" value="+12v " style="edgeLabel;html=1;align=center;verticalAlign=middle;resizable=0;points=[];labelBorderColor=none;" vertex="1" connectable="0" parent="2yWPxu5EqL3qzud-W6bz-29">
          <mxGeometry x="0.7325" relative="1" as="geometry">
            <mxPoint x="24" y="-10" as="offset" />
          </mxGeometry>
        </mxCell>
        <mxCell id="2yWPxu5EqL3qzud-W6bz-38" value="&lt;div&gt;&lt;b&gt;H26M31001&lt;/b&gt;&lt;/div&gt;&lt;div&gt;4GB eMMC&lt;br&gt;&lt;/div&gt;&lt;div style=&quot;font-size: 10px;&quot;&gt;&lt;i&gt;&lt;font style=&quot;font-size: 10px;&quot;&gt;200mA&lt;/font&gt;&lt;/i&gt;&lt;br&gt;&lt;/div&gt;" style="whiteSpace=wrap;html=1;rounded=1;fillColor=#e1d5e7;strokeColor=#9673a6;" vertex="1" parent="1">
          <mxGeometry x="560" y="200" width="120" height="70" as="geometry" />
        </mxCell>
        <mxCell id="2yWPxu5EqL3qzud-W6bz-52" value="" style="edgeStyle=orthogonalEdgeStyle;rounded=0;orthogonalLoop=1;jettySize=auto;html=1;shape=link;" edge="1" target="2yWPxu5EqL3qzud-W6bz-58" parent="1">
          <mxGeometry relative="1" as="geometry">
            <mxPoint x="320" y="310.02857142857135" as="sourcePoint" />
            <Array as="points">
              <mxPoint x="380" y="310" />
              <mxPoint x="380" y="310" />
            </Array>
          </mxGeometry>
        </mxCell>
        <mxCell id="2yWPxu5EqL3qzud-W6bz-53" value="USB 1" style="edgeLabel;html=1;align=center;verticalAlign=middle;resizable=0;points=[];" vertex="1" connectable="0" parent="2yWPxu5EqL3qzud-W6bz-52">
          <mxGeometry x="-0.08" y="3" relative="1" as="geometry">
            <mxPoint y="-7" as="offset" />
          </mxGeometry>
        </mxCell>
        <mxCell id="2yWPxu5EqL3qzud-W6bz-54" value="" style="edgeStyle=orthogonalEdgeStyle;rounded=0;orthogonalLoop=1;jettySize=auto;html=1;shape=link;" edge="1" source="2yWPxu5EqL3qzud-W6bz-58" target="2yWPxu5EqL3qzud-W6bz-59" parent="1">
          <mxGeometry relative="1" as="geometry">
            <Array as="points">
              <mxPoint x="500" y="300" />
              <mxPoint x="500" y="300" />
            </Array>
          </mxGeometry>
        </mxCell>
        <mxCell id="2yWPxu5EqL3qzud-W6bz-55" value="IO" style="edgeLabel;html=1;align=center;verticalAlign=middle;resizable=0;points=[];" vertex="1" connectable="0" parent="2yWPxu5EqL3qzud-W6bz-54">
          <mxGeometry x="-0.2533" y="-1" relative="1" as="geometry">
            <mxPoint x="1" y="-11" as="offset" />
          </mxGeometry>
        </mxCell>
        <mxCell id="2yWPxu5EqL3qzud-W6bz-56" style="edgeStyle=orthogonalEdgeStyle;rounded=0;orthogonalLoop=1;jettySize=auto;html=1;exitX=1;exitY=0.75;exitDx=0;exitDy=0;entryX=0;entryY=0.75;entryDx=0;entryDy=0;strokeWidth=2;startArrow=none;startFill=0;" edge="1" source="2yWPxu5EqL3qzud-W6bz-58" target="2yWPxu5EqL3qzud-W6bz-59" parent="1">
          <mxGeometry relative="1" as="geometry">
            <Array as="points">
              <mxPoint x="530" y="333" />
              <mxPoint x="530" y="333" />
            </Array>
          </mxGeometry>
        </mxCell>
        <mxCell id="2yWPxu5EqL3qzud-W6bz-57" value="+3.3v" style="edgeLabel;html=1;align=center;verticalAlign=middle;resizable=0;points=[];" vertex="1" connectable="0" parent="2yWPxu5EqL3qzud-W6bz-56">
          <mxGeometry x="-0.32" y="1" relative="1" as="geometry">
            <mxPoint x="6" y="-11" as="offset" />
          </mxGeometry>
        </mxCell>
        <mxCell id="2yWPxu5EqL3qzud-W6bz-58" value="&lt;div&gt;&lt;b&gt;AU6438BS&lt;/b&gt;&lt;/div&gt;&lt;div&gt;USB to eMMC&lt;br&gt;&lt;/div&gt;&lt;div style=&quot;font-size: 10px;&quot;&gt;&lt;i&gt;&lt;font style=&quot;font-size: 10px;&quot;&gt;24mA&lt;/font&gt;&lt;/i&gt;&lt;br&gt;&lt;/div&gt;" style="whiteSpace=wrap;html=1;rounded=1;fillColor=#d5e8d4;strokeColor=#82b366;" vertex="1" parent="1">
          <mxGeometry x="370" y="280" width="120" height="70" as="geometry" />
        </mxCell>
        <mxCell id="2yWPxu5EqL3qzud-W6bz-59" value="&lt;div&gt;&lt;b&gt;H26M31001&lt;/b&gt;&lt;/div&gt;&lt;div&gt;4GB eMMC&lt;br&gt;&lt;/div&gt;&lt;div style=&quot;font-size: 10px;&quot;&gt;&lt;i&gt;&lt;font style=&quot;font-size: 10px;&quot;&gt;200mA&lt;/font&gt;&lt;/i&gt;&lt;br&gt;&lt;/div&gt;" style="whiteSpace=wrap;html=1;rounded=1;fillColor=#e1d5e7;strokeColor=#9673a6;" vertex="1" parent="1">
          <mxGeometry x="560" y="280" width="120" height="70" as="geometry" />
        </mxCell>
        <mxCell id="2yWPxu5EqL3qzud-W6bz-61" value="" style="edgeStyle=orthogonalEdgeStyle;rounded=0;orthogonalLoop=1;jettySize=auto;html=1;shape=link;" edge="1" target="2yWPxu5EqL3qzud-W6bz-67" parent="1">
          <mxGeometry relative="1" as="geometry">
            <mxPoint x="320" y="390.02857142857135" as="sourcePoint" />
            <Array as="points">
              <mxPoint x="380" y="390" />
              <mxPoint x="380" y="390" />
            </Array>
          </mxGeometry>
        </mxCell>
        <mxCell id="2yWPxu5EqL3qzud-W6bz-62" value="USB 2" style="edgeLabel;html=1;align=center;verticalAlign=middle;resizable=0;points=[];" vertex="1" connectable="0" parent="2yWPxu5EqL3qzud-W6bz-61">
          <mxGeometry x="-0.08" y="3" relative="1" as="geometry">
            <mxPoint y="-7" as="offset" />
          </mxGeometry>
        </mxCell>
        <mxCell id="2yWPxu5EqL3qzud-W6bz-63" value="" style="edgeStyle=orthogonalEdgeStyle;rounded=0;orthogonalLoop=1;jettySize=auto;html=1;shape=link;" edge="1" source="2yWPxu5EqL3qzud-W6bz-67" target="2yWPxu5EqL3qzud-W6bz-68" parent="1">
          <mxGeometry relative="1" as="geometry">
            <Array as="points">
              <mxPoint x="500" y="380" />
              <mxPoint x="500" y="380" />
            </Array>
          </mxGeometry>
        </mxCell>
        <mxCell id="2yWPxu5EqL3qzud-W6bz-64" value="IO" style="edgeLabel;html=1;align=center;verticalAlign=middle;resizable=0;points=[];" vertex="1" connectable="0" parent="2yWPxu5EqL3qzud-W6bz-63">
          <mxGeometry x="-0.2533" y="-1" relative="1" as="geometry">
            <mxPoint x="1" y="-11" as="offset" />
          </mxGeometry>
        </mxCell>
        <mxCell id="2yWPxu5EqL3qzud-W6bz-65" style="edgeStyle=orthogonalEdgeStyle;rounded=0;orthogonalLoop=1;jettySize=auto;html=1;exitX=1;exitY=0.75;exitDx=0;exitDy=0;entryX=0;entryY=0.75;entryDx=0;entryDy=0;strokeWidth=2;startArrow=none;startFill=0;" edge="1" source="2yWPxu5EqL3qzud-W6bz-67" target="2yWPxu5EqL3qzud-W6bz-68" parent="1">
          <mxGeometry relative="1" as="geometry">
            <Array as="points">
              <mxPoint x="530" y="413" />
              <mxPoint x="530" y="413" />
            </Array>
          </mxGeometry>
        </mxCell>
        <mxCell id="2yWPxu5EqL3qzud-W6bz-66" value="+3.3v" style="edgeLabel;html=1;align=center;verticalAlign=middle;resizable=0;points=[];" vertex="1" connectable="0" parent="2yWPxu5EqL3qzud-W6bz-65">
          <mxGeometry x="-0.32" y="1" relative="1" as="geometry">
            <mxPoint x="6" y="-11" as="offset" />
          </mxGeometry>
        </mxCell>
        <mxCell id="2yWPxu5EqL3qzud-W6bz-67" value="&lt;div&gt;&lt;b&gt;AU6438BS&lt;/b&gt;&lt;/div&gt;&lt;div&gt;USB to eMMC&lt;br&gt;&lt;/div&gt;&lt;div style=&quot;font-size: 10px;&quot;&gt;&lt;i&gt;&lt;font style=&quot;font-size: 10px;&quot;&gt;24mA&lt;/font&gt;&lt;/i&gt;&lt;br&gt;&lt;/div&gt;" style="whiteSpace=wrap;html=1;rounded=1;fillColor=#d5e8d4;strokeColor=#82b366;" vertex="1" parent="1">
          <mxGeometry x="370" y="360" width="120" height="70" as="geometry" />
        </mxCell>
        <mxCell id="2yWPxu5EqL3qzud-W6bz-68" value="&lt;div&gt;&lt;b&gt;H26M31001&lt;/b&gt;&lt;/div&gt;&lt;div&gt;4GB eMMC&lt;br&gt;&lt;/div&gt;&lt;div style=&quot;font-size: 10px;&quot;&gt;&lt;i&gt;&lt;font style=&quot;font-size: 10px;&quot;&gt;200mA&lt;/font&gt;&lt;/i&gt;&lt;br&gt;&lt;/div&gt;" style="whiteSpace=wrap;html=1;rounded=1;fillColor=#e1d5e7;strokeColor=#9673a6;" vertex="1" parent="1">
          <mxGeometry x="560" y="360" width="120" height="70" as="geometry" />
        </mxCell>
        <mxCell id="2yWPxu5EqL3qzud-W6bz-69" value="" style="edgeStyle=orthogonalEdgeStyle;rounded=0;orthogonalLoop=1;jettySize=auto;html=1;shape=link;" edge="1" target="2yWPxu5EqL3qzud-W6bz-75" parent="1">
          <mxGeometry relative="1" as="geometry">
            <mxPoint x="320" y="470.02857142857135" as="sourcePoint" />
            <Array as="points">
              <mxPoint x="380" y="470" />
              <mxPoint x="380" y="470" />
            </Array>
          </mxGeometry>
        </mxCell>
        <mxCell id="2yWPxu5EqL3qzud-W6bz-70" value="USB 3" style="edgeLabel;html=1;align=center;verticalAlign=middle;resizable=0;points=[];" vertex="1" connectable="0" parent="2yWPxu5EqL3qzud-W6bz-69">
          <mxGeometry x="-0.08" y="3" relative="1" as="geometry">
            <mxPoint y="-7" as="offset" />
          </mxGeometry>
        </mxCell>
        <mxCell id="2yWPxu5EqL3qzud-W6bz-71" value="" style="edgeStyle=orthogonalEdgeStyle;rounded=0;orthogonalLoop=1;jettySize=auto;html=1;shape=link;" edge="1" source="2yWPxu5EqL3qzud-W6bz-75" target="2yWPxu5EqL3qzud-W6bz-76" parent="1">
          <mxGeometry relative="1" as="geometry">
            <Array as="points">
              <mxPoint x="500" y="460" />
              <mxPoint x="500" y="460" />
            </Array>
          </mxGeometry>
        </mxCell>
        <mxCell id="2yWPxu5EqL3qzud-W6bz-72" value="IO" style="edgeLabel;html=1;align=center;verticalAlign=middle;resizable=0;points=[];" vertex="1" connectable="0" parent="2yWPxu5EqL3qzud-W6bz-71">
          <mxGeometry x="-0.2533" y="-1" relative="1" as="geometry">
            <mxPoint x="1" y="-11" as="offset" />
          </mxGeometry>
        </mxCell>
        <mxCell id="2yWPxu5EqL3qzud-W6bz-73" style="edgeStyle=orthogonalEdgeStyle;rounded=0;orthogonalLoop=1;jettySize=auto;html=1;exitX=1;exitY=0.75;exitDx=0;exitDy=0;entryX=0;entryY=0.75;entryDx=0;entryDy=0;strokeWidth=2;startArrow=none;startFill=0;" edge="1" source="2yWPxu5EqL3qzud-W6bz-75" target="2yWPxu5EqL3qzud-W6bz-76" parent="1">
          <mxGeometry relative="1" as="geometry">
            <Array as="points">
              <mxPoint x="530" y="493" />
              <mxPoint x="530" y="493" />
            </Array>
          </mxGeometry>
        </mxCell>
        <mxCell id="2yWPxu5EqL3qzud-W6bz-74" value="+3.3v" style="edgeLabel;html=1;align=center;verticalAlign=middle;resizable=0;points=[];" vertex="1" connectable="0" parent="2yWPxu5EqL3qzud-W6bz-73">
          <mxGeometry x="-0.32" y="1" relative="1" as="geometry">
            <mxPoint x="6" y="-11" as="offset" />
          </mxGeometry>
        </mxCell>
        <mxCell id="2yWPxu5EqL3qzud-W6bz-75" value="&lt;div&gt;&lt;b&gt;AU6438BS&lt;/b&gt;&lt;/div&gt;&lt;div&gt;USB to eMMC&lt;br&gt;&lt;/div&gt;&lt;div style=&quot;font-size: 10px;&quot;&gt;&lt;i&gt;&lt;font style=&quot;font-size: 10px;&quot;&gt;24mA&lt;/font&gt;&lt;/i&gt;&lt;br&gt;&lt;/div&gt;" style="whiteSpace=wrap;html=1;rounded=1;fillColor=#d5e8d4;strokeColor=#82b366;" vertex="1" parent="1">
          <mxGeometry x="370" y="440" width="120" height="70" as="geometry" />
        </mxCell>
        <mxCell id="2yWPxu5EqL3qzud-W6bz-76" value="&lt;div&gt;&lt;b&gt;H26M31001&lt;/b&gt;&lt;/div&gt;&lt;div&gt;4GB eMMC&lt;br&gt;&lt;/div&gt;&lt;div style=&quot;font-size: 10px;&quot;&gt;&lt;i&gt;&lt;font style=&quot;font-size: 10px;&quot;&gt;200mA&lt;/font&gt;&lt;/i&gt;&lt;br&gt;&lt;/div&gt;" style="whiteSpace=wrap;html=1;rounded=1;fillColor=#e1d5e7;strokeColor=#9673a6;" vertex="1" parent="1">
          <mxGeometry x="560" y="440" width="120" height="70" as="geometry" />
        </mxCell>
        <mxCell id="2yWPxu5EqL3qzud-W6bz-77" value="&lt;div&gt;HTML Accelerator&lt;/div&gt;&lt;div style=&quot;font-size: 10px;&quot;&gt;&lt;span style=&quot;font-weight: normal;&quot;&gt;9/15/2024&lt;/span&gt;&lt;br&gt;&lt;/div&gt;" style="text;strokeColor=none;fillColor=none;html=1;fontSize=24;fontStyle=1;verticalAlign=middle;align=center;" vertex="1" parent="1">
          <mxGeometry x="272" y="82" width="259" height="40" as="geometry" />
        </mxCell>
        <mxCell id="2yWPxu5EqL3qzud-W6bz-78" value="&lt;div&gt;&lt;b&gt;CAT24C256&lt;/b&gt;&lt;/div&gt;&lt;div&gt;256Kb EEPROM&lt;br&gt;&lt;/div&gt;&lt;div&gt;&lt;i&gt;3mA&lt;/i&gt;&lt;br&gt;&lt;/div&gt;" style="whiteSpace=wrap;html=1;fillColor=#dae8fc;strokeColor=#6c8ebf;rounded=1;" vertex="1" parent="1">
          <mxGeometry x="200" y="510" width="120" height="60" as="geometry" />
        </mxCell>
      </root>
    </mxGraphModel>
  </diagram>
</mxfile>
